{"asset":{"version":"2.0","generator":"THREE.GLTFExporter"},"scenes":[{"nodes":[0],"name":"AuxScene"}],"scene":0,"nodes":[{"mesh":0}],"bufferViews":[{"buffer":0,"byteOffset":0,"byteLength":14076,"target":34962,"byteStride":12},{"buffer":0,"byteOffset":14076,"byteLength":14076,"target":34962,"byteStride":12}],"buffers":[{"byteLength":28152,"uri":"data:application/octet-stream;base64,"}],"accessors":[{"bufferView":0,"componentType":5126,"count":1173,"max":[100.61190795898438,20.395973205566406,100.61190795898438],"min":[-100.68809509277344,0.19596900045871735,-100.68809509277344],"type":"VEC3"},{"bufferView":1,"componentType":5126,"count":1173,"max":[0.4205436110496521,1,0.4373627007007599],"min":[-0.3846162259578705,0.8561016321182251,-0.22152698040008545],"type":"VEC3"}],"materials":[{"pbrMetallicRoughness":{"baseColorFactor":[0.5019607843137255,0.5019607843137255,0.5019607843137255,1],"metallicFactor":0,"roughnessFactor":1}}],"meshes":[{"primitives":[{"mode":4,"attributes":{"POSITION":0,"NORMAL":1},"material":0}]}]}